{"title":"Sarbjit Hindi 2016 DesiSCR x264-Hindify.mp4","uid":15578688,"size":952518527,"categoryP":"video","categoryS":"movies","magnet":"?xt=urn:btih:7ada2538af7941648e94ebd9847e1ea55fa61afa&amp;dn=Sarbjit+Hindi+2016+DesiSCR+x264-Hindify.mp4&amp;tr=udp%3A%2F%2Ftracker.leechers-paradise.org%3A6969&amp;tr=udp%3A%2F%2Fzer0day.ch%3A1337&amp;tr=udp%3A%2F%2Fopen.demonii.com%3A1337&amp;tr=udp%3A%2F%2Ftracker.coppersurfer.tk%3A6969&amp;tr=udp%3A%2F%2Fexodus.desync.com%3A6969","seeders":0,"leechers":1,"uploader":null,"files":1,"time":1471375531,"description":"Sarbjit Hindi 2016 DesiSCR x264-Hindify.mp4\r\n\r\nScreenshots:\r\n \nhttp://extraimago.com/images/2016/08/16/vlcsnap-2016-08-16-14h21m10s015.png \nhttp://extraimago.com/images/2016/08/16/vlcsnap-2016-08-16-14h21m07s116.png \nhttp://extraimago.com/images/2016/08/16/vlcsnap-2016-08-16-14h21m04s104.png \nhttp://extraimago.com/images/2016/08/16/vlcsnap-2016-08-16-14h21m00s839.png \nhttp://extraimago.com/images/2016/08/16/vlcsnap-2016-08-16-14h20m57s552.png\r\n\r\nInfo:\r\n\r\nFormat : MPEG-4\r\nFormat profile : Base Media\r\nCodec ID : isom (isom/iso2/avc1/mp41)\r\nFile size : 908 MiB\r\nDuration : 2 h 12 min\r\nOverall bit rate : 962 kb/s\r\nWriting application : Lavf57.20.100\r\n\r\nVideo\r\nID : 1\r\nFormat : AVC\r\nFormat/Info : Advanced Video Codec\r\nFormat profile :   \r\nFormat settings, CABAC : Yes\r\nFormat settings, ReFrames : 8 frames\r\nCodec ID : avc1\r\nCodec ID/Info : Advanced Video Coding\r\nDuration : 2 h 12 min\r\nBit rate : 824 kb/s\r\nWidth : 720 pixels\r\nHeight : 304 pixels\r\nDisplay aspect ratio : 2.35:1\r\nFrame rate mode : Variable\r\nFrame rate : 23.976 (24000/1001) FPS\r\nMinimum frame rate : 23.564 FPS\r\nMaximum frame rate : 24.390 FPS\r\nColor space : YUV\r\nChroma subsampling : 4:2:0\r\nBit depth : 8 bits\r\nScan type : Progressive\r\nBits/(Pixel*Frame) : 0.157\r\nStream size : 778 MiB (86%)\r\nWriting library : x264 core 148 r2692 64f4e24\r\nEncoding settings : cabac=1 / ref=8 / deblock=1:-1:-1 / analyse=0x3:0x133 / me=umh / subme=9 / psy=1 / psy_rd=1.00:0.15 / mixed_ref=1 / me_range=16 / chroma_me=1 / trellis=2 / 8x8dct=1 / cqm=1 / deadzone=21,11 / fast_pskip=1 / chroma_qp_offset=-3 / threads=9 / lookahead_threads=1 / sliced_threads=0 / nr=0 / decimate=1 / interlaced=0 / bluray_compat=0 / constrained_intra=0 / bframes=3 / b_pyramid=2 / b_adapt=2 / b_bias=0 / direct=3 / weightb=1 / open_gop=0 / weightp=2 / keyint=240 / keyint_min=23 / scenecut=40 / intra_refresh=0 / rc_lookahead=60 / rc=2pass / mbtree=1 / bitrate=824 / ratetol=1.0 / qcomp=0.60 / qpmin=4 / qpmax=69 / qpstep=4 / cplxblur=20.0 / qblur=0.5 / vbv_maxrate=17500 / vbv_bufsize=17500 / nal_hrd=none / filler=0 / ip_ratio=1.40 / aq=1:1.00\r\nLanguage : English\r\nColor range : Limited\r\nColor primaries : BT.601 NTSC\r\nTransfer characteristics : BT.470 System B, BT.470 System G\r\nMatrix coefficients : BT.601\r\nMenus : 3\r\n\r\nAudio\r\nID : 2\r\nFormat : AAC\r\nFormat/Info : Advanced Audio Codec\r\nFormat profile : LC\r\nCodec ID : 40\r\nDuration : 2 h 12 min\r\nBit rate mode : Constant\r\nBit rate : 132 kb/s\r\nChannel(s) : 2 channels\r\nChannel positions : Front: L R\r\nSampling rate : 48.0 kHz\r\nFrame rate : 46.875 FPS (1024 spf)\r\nCompression mode : Lossy\r\nStream size : 123 MiB (14%)\r\nLanguage : Hindi\r\nDefault : Yes\r\nAlternate group : 1\r\nMenus : 3\r\n\r\nMenu #1\r\nID : 3\r\nCodec ID : text\r\nDuration : 2 h 12 min\r\nLanguage : English\r\nMenu For : 1,2\r\n00:00:00.000 : Chapter 1\r\n00:03:20.400 : Chapter 2\r\n00:05:40.200 : Chapter 3\r\n00:09:17.400 : Chapter 4\r\n00:12:30.000 : Chapter 5\r\n00:14:27.600 : Chapter 6\r\n00:19:15.600 : Chapter 7\r\n00:27:21.000 : Chapter 8\r\n00:30:09.000 : Chapter 9\r\n00:34:54.600 : Chapter 10\r\n00:37:36.000 : Chapter 11\r\n00:39:23.400 : Chapter 12\r\n00:45:22.200 : Chapter 13\r\n00:50:52.800 : Chapter 14\r\n01:01:09.000 : Chapter 15\r\n01:04:42.600 : Chapter 16\r\n01:20:08.400 : Chapter 17\r\n01:26:19.200 : Chapter 18\r\n01:28:31.200 : Chapter 19\r\n01:30:57.000 : Chapter 20\r\n01:44:32.400 : Chapter 21\r\n01:48:26.400 : Chapter 22\r\n01:52:42.000 : Chapter 23\r\n02:08:26.400 : Chapter 24\r\nBit rate mode : VBR\r\n\r\nMenu #2\r\n00:00:00.000 : Chapter 1\r\n00:03:20.400 : Chapter 2\r\n00:05:40.200 : Chapter 3\r\n00:09:17.400 : Chapter 4\r\n00:12:30.000 : Chapter 5\r\n00:14:27.600 : Chapter 6\r\n00:19:15.600 : Chapter 7\r\n00:27:21.000 : Chapter 8\r\n00:30:09.000 : Chapter 9\r\n00:34:54.600 : Chapter 10\r\n00:37:36.000 : Chapter 11\r\n00:39:23.400 : Chapter 12\r\n00:45:22.200 : Chapter 13\r\n00:50:52.800 : Chapter 14\r\n01:01:09.000 : Chapter 15\r\n01:04:42.600 : Chapter 16\r\n01:20:08.400 : Chapter 17\r\n01:26:19.200 : Chapter 18\r\n01:28:31.200 : Chapter 19\r\n01:30:57.000 : Chapter 20\r\n01:44:32.400 : Chapter 21\r\n01:48:26.400 : Chapter 22\r\n01:52:42.000 : Chapter 23\r\n02:08:26.400 : Chapter 24 \r\n \nhttp://tvmoviereviews.drupalgardens.com/content/sarbjit-review","torrent":{"xt":"urn:btih:7ada2538af7941648e94ebd9847e1ea55fa61afa","amp;dn":"Sarbjit+Hindi+2016+DesiSCR+x264-Hindify.mp4","amp;tr":["udp%3A%2F%2Ftracker.leechers-paradise.org%3A6969","udp%3A%2F%2Fzer0day.ch%3A1337","udp%3A%2F%2Fopen.demonii.com%3A1337","udp%3A%2F%2Ftracker.coppersurfer.tk%3A6969","udp%3A%2F%2Fexodus.desync.com%3A6969"],"infoHash":"7ada2538af7941648e94ebd9847e1ea55fa61afa","infoHashBuffer":{"type":"Buffer","data":[122,218,37,56,175,121,65,100,142,148,235,217,132,126,30,165,95,166,26,250]},"announce":[],"urlList":[]}}